<?xml version="1.0" encoding="UTF-8" standalone="no"?>
<!-- Created with Inkscape (http://www.inkscape.org/) -->
<svg xmlns:dc="http://purl.org/dc/elements/1.1/" xmlns:cc="http://creativecommons.org/ns#" xmlns:rdf="http://www.w3.org/1999/02/22-rdf-syntax-ns#" xmlns:svg="http://www.w3.org/2000/svg" xmlns="http://www.w3.org/2000/svg" xmlns:sodipodi="http://sodipodi.sourceforge.net/DTD/sodipodi-0.dtd" xmlns:inkscape="http://www.inkscape.org/namespaces/inkscape" width="1034.082" height="1037.1" viewBox="0 0 1034.082 1037.1" id="svg2" version="1.1" inkscape:version="0.91 r13725" sodipodi:docname="Patreon icon.svg" style="cursor: default;">
  <defs id="defs4"/>
  <sodipodi:namedview id="base" pagecolor="#ffffff" bordercolor="#666666" borderopacity="1.0" inkscape:pageopacity="0.0" inkscape:pageshadow="2" inkscape:zoom="0.1767767" inkscape:cx="41.615724" inkscape:cy="589.37498" inkscape:document-units="px" inkscape:current-layer="layer1" showgrid="false" units="px" inkscape:window-width="1366" inkscape:window-height="705" inkscape:window-x="-8" inkscape:window-y="-8" inkscape:window-maximized="1"/>
  <metadata id="metadata7">
    <rdf:RDF>
      <cc:Work rdf:about="">
        <dc:format>image/svg+xml</dc:format>
        <dc:type rdf:resource="http://purl.org/dc/dcmitype/StillImage"/>
        <dc:title/>
      </cc:Work>
    </rdf:RDF>
  </metadata>
  <g inkscape:label="Layer 1" inkscape:groupmode="layer" id="layer1" transform="translate(0,-15.262176)">
    <path style="fill:#e6461a" inkscape:connector-curvature="0" id="path11" d="m 554.77175,15.262203 c 29.89304,5.386134 60.32469,8.887121 89.67912,16.158401 202.51862,50.091041 356.02343,221.908696 384.56993,429.274836 37.9722,275.77003 -141.38601,527.84108 -414.73228,582.51036 -19.65939,4.0396 -39.85739,6.194 -59.78608,9.1564 -91.56427,0 -183.12854,0 -274.69281,0 0,-173.7028 0,-347.40561 0.26931,-520.8391 0,-11.58019 1.07723,-23.42969 2.96237,-34.74057 17.77424,-116.60979 124.15038,-204.67307 240.76017,-200.09485 123.07315,5.11682 221.9087,100.18208 229.71859,221.37008 11.58019,179.89686 -171.54835,306.20169 -335.55611,231.33443 -3.50099,-1.61584 -7.00198,-2.96237 -12.1188,-4.84752 0,55.20787 -0.26931,108.53059 0.53861,161.85331 0,3.23168 6.19405,8.0792 10.23365,9.15643 52.5148,15.08117 106.10683,18.04355 159.96817,9.42573 C 804.41903,888.35444 951.46047,672.10118 902.17735,447.49941 856.66453,239.59466 648.75977,103.59479 441.66294,145.87594 254.2255,183.57887 123.34246,343.54704 122.80384,535.29339 c -0.2693,167.77806 0,335.55611 0,503.33421 0,4.5782 0.53862,8.8871 1.07723,13.4653 -41.203921,0 -82.677149,0 -123.88107,0 C 0,866.27129 0,680.44969 0,494.62808 1.61584,484.12512 3.5009867,473.62216 4.8475201,462.84989 33.394027,253.59861 186.09091,82.319565 391.03329,31.151297 c 29.08512,-7.27128 58.97816,-10.772267 88.33259,-15.889094 25.04552,0 50.36035,0 75.40587,0 z" class="st0"/>
  </g>
</svg>